<?xml version="1.0" standalone="no"?><!DOCTYPE svg PUBLIC "-//W3C//DTD SVG 1.1//EN" "http://www.w3.org/Graphics/SVG/1.1/DTD/svg11.dtd"><svg t="1773991255275" class="icon" viewBox="0 0 1024 1024" version="1.1" xmlns="http://www.w3.org/2000/svg" p-id="3048" xmlns:xlink="http://www.w3.org/1999/xlink" width="200" height="200"><path d="M597.333333 426.666667h-170.666666v170.666666h170.666666v-170.666666z m0-85.333334V149.333333h-170.666666v192h170.666666zM149.333333 426.666667v170.666666h192v-170.666666H149.333333z m0-85.333334h192V149.333333H149.333333v192z m725.333334 85.333334h-192v170.666666h192v-170.666666z m0-85.333334V149.333333h-192v192h192zM597.333333 682.666667h-170.666666v192h170.666666v-192zM149.333333 682.666667v192h192v-192H149.333333z m725.333334 0h-192v192h192v-192z m85.333333-618.666667v896H64V64h896z" fill="#000000" p-id="3049"></path></svg>