<svg xmlns="http://www.w3.org/2000/svg" xmlns:xlink="http://www.w3.org/1999/xlink" viewBox="0 0 600 600" width="600" height="600" preserveAspectRatio="xMidYMid meet" style="width: 100%; height: 100%; transform: translate3d(0px, 0px, 0px); content-visibility: visible;"><defs><clipPath id="__lottie_element_2"><rect width="600" height="600" x="0" y="0"></rect></clipPath><clipPath id="__lottie_element_4"><path d="M0,0 L3840,0 L3840,2160 L0,2160z"></path></clipPath><clipPath id="__lottie_element_57"><path d="M0,0 L3840,0 L3840,2160 L0,2160z"></path></clipPath></defs><g clip-path="url(#__lottie_element_2)"><g clip-path="url(#__lottie_element_57)" transform="matrix(0.30000001192092896,0,0,0.30000001192092896,-276,-24)" opacity="1" style="display: block;"><g transform="matrix(3.725472927093506,0,0,3.725472927093506,-13943.4267578125,1393.27490234375)" opacity="1" style="display: block;"><g opacity="1" transform="matrix(1,0,0,1,4258.10009765625,-84.09300231933594)"><path fill="rgb(97,92,237)" fill-opacity="1" d=" M187.06500244140625,-60.0099983215332 C187.06500244140625,-60.0099983215332 218.23500061035156,-113.98999786376953 218.23500061035156,-113.98999786376953 C219.30499267578125,-115.83999633789062 219.84500122070312,-117.91999816894531 219.84500122070312,-119.98999786376953 C219.84500122070312,-122.05999755859375 219.30499267578125,-124.13999938964844 218.23500061035156,-125.98999786376953 C218.23500061035156,-125.98999786376953 183.59500122070312,-185.99000549316406 183.59500122070312,-185.99000549316406 C182.52499389648438,-187.83999633789062 181.0050048828125,-189.33999633789062 179.2050018310547,-190.3800048828125 C177.4149932861328,-191.4199981689453 175.34500122070312,-191.99000549316406 173.2050018310547,-191.99000549316406 C173.2050018310547,-191.99000549316406 -110.9229965209961,-191.8699951171875 -110.9229965209961,-191.8699951171875 C-110.9229965209961,-191.8699951171875 -145.48500061035156,-132.00999450683594 -145.48500061035156,-132.00999450683594 C-145.48500061035156,-132.00999450683594 -122.10600280761719,0.06199999898672104 -122.10600280761719,0.06199999898672104 C-122.10600280761719,0.06199999898672104 187.06500244140625,-60.0099983215332 187.06500244140625,-60.0099983215332z" data-spm-anchor-id="5176.28326591.0.i4.40f76ee1sOSqc0"></path></g></g><g transform="matrix(3.725472927093506,0,0,3.725472927093506,-13943.43359375,1393.2930908203125)" opacity="1" style="display: block;"><g opacity="1" transform="matrix(1,0,0,1,4258.10009765625,-84.09300231933594)"><path fill="rgb(97,92,237)" fill-opacity="1" d=" M41.564998626708984,-191.99000549316406 C41.564998626708984,-191.99000549316406 10.385000228881836,-245.99000549316406 10.385000228881836,-245.99000549316406 C8.244999885559082,-249.6999969482422 4.284999847412109,-251.99000549316406 -0.004999999888241291,-251.99000549316406 C-0.004999999888241291,-251.99000549316406 -69.28500366210938,-251.99000549316406 -69.28500366210938,-251.99000549316406 C-71.42500305175781,-251.99000549316406 -73.48500061035156,-251.4199981689453 -75.2750015258789,-250.3800048828125 C-77.07499694824219,-249.33999633789062 -78.59500122070312,-247.83999633789062 -79.67500305175781,-245.99000549316406 C-79.67500305175781,-245.99000549316406 -111.18199920654297,-191.4219970703125 -111.18199920654297,-191.4219970703125 C-111.18199920654297,-191.4219970703125 -145.48500061035156,-132.00999450683594 -145.48500061035156,-132.00999450683594 C-145.48500061035156,-132.00999450683594 41.564998626708984,-191.99000549316406 41.564998626708984,-191.99000549316406z"></path></g></g><g transform="matrix(-1.862736463546753,3.2263541221618652,-3.2263541221618652,-1.862736463546753,9580.4091796875,-12814.767578125)" opacity="1" style="display: block;"><g opacity="1" transform="matrix(1,0,0,1,4258.10009765625,-84.09300231933594)"><path fill="rgb(97,92,237)" fill-opacity="1" d=" M187.06500244140625,-60.0099983215332 C187.06500244140625,-60.0099983215332 218.23500061035156,-113.98999786376953 218.23500061035156,-113.98999786376953 C219.30499267578125,-115.83999633789062 219.84500122070312,-117.91999816894531 219.84500122070312,-119.98999786376953 C219.84500122070312,-122.05999755859375 219.30499267578125,-124.13999938964844 218.23500061035156,-125.98999786376953 C218.23500061035156,-125.98999786376953 183.59500122070312,-185.99000549316406 183.59500122070312,-185.99000549316406 C182.52499389648438,-187.83999633789062 181.0050048828125,-189.33999633789062 179.2050018310547,-190.3800048828125 C177.4149932861328,-191.4199981689453 175.34500122070312,-191.99000549316406 173.2050018310547,-191.99000549316406 C173.2050018310547,-191.99000549316406 -110.9229965209961,-191.8699951171875 -110.9229965209961,-191.8699951171875 C-110.9229965209961,-191.8699951171875 -145.48500061035156,-132.00999450683594 -145.48500061035156,-132.00999450683594 C-145.48500061035156,-132.00999450683594 -122.10600280761719,0.06199999898672104 -122.10600280761719,0.06199999898672104 C-122.10600280761719,0.06199999898672104 187.06500244140625,-60.0099983215332 187.06500244140625,-60.0099983215332z"></path></g></g><g transform="matrix(-1.862736463546753,3.2263541221618652,-3.2263541221618652,-1.862736463546753,9580.396484375,-12814.783203125)" opacity="1" style="display: block;"><g opacity="1" transform="matrix(1,0,0,1,4258.10009765625,-84.09300231933594)"><path fill="rgb(97,92,237)" fill-opacity="1" d=" M41.564998626708984,-191.99000549316406 C41.564998626708984,-191.99000549316406 10.385000228881836,-245.99000549316406 10.385000228881836,-245.99000549316406 C8.244999885559082,-249.6999969482422 4.284999847412109,-251.99000549316406 -0.004999999888241291,-251.99000549316406 C-0.004999999888241291,-251.99000549316406 -69.28500366210938,-251.99000549316406 -69.28500366210938,-251.99000549316406 C-71.42500305175781,-251.99000549316406 -73.48500061035156,-251.4199981689453 -75.2750015258789,-250.3800048828125 C-77.07499694824219,-249.33999633789062 -78.59500122070312,-247.83999633789062 -79.67500305175781,-245.99000549316406 C-79.67500305175781,-245.99000549316406 -111.18199920654297,-191.4219970703125 -111.18199920654297,-191.4219970703125 C-111.18199920654297,-191.4219970703125 -145.48500061035156,-132.00999450683594 -145.48500061035156,-132.00999450683594 C-145.48500061035156,-132.00999450683594 41.564998626708984,-191.99000549316406 41.564998626708984,-191.99000549316406z"></path></g></g><g transform="matrix(-1.862736463546753,-3.2263541221618652,3.2263541221618652,-1.862736463546753,10123.017578125,14661.4931640625)" opacity="1" style="display: block;"><g opacity="1" transform="matrix(1,0,0,1,4258.10009765625,-84.09300231933594)"><path fill="rgb(97,92,237)" fill-opacity="1" d=" M187.06500244140625,-60.0099983215332 C187.06500244140625,-60.0099983215332 218.23500061035156,-113.98999786376953 218.23500061035156,-113.98999786376953 C219.30499267578125,-115.83999633789062 219.84500122070312,-117.91999816894531 219.84500122070312,-119.98999786376953 C219.84500122070312,-122.05999755859375 219.30499267578125,-124.13999938964844 218.23500061035156,-125.98999786376953 C218.23500061035156,-125.98999786376953 183.59500122070312,-185.99000549316406 183.59500122070312,-185.99000549316406 C182.52499389648438,-187.83999633789062 181.0050048828125,-189.33999633789062 179.2050018310547,-190.3800048828125 C177.4149932861328,-191.4199981689453 175.34500122070312,-191.99000549316406 173.2050018310547,-191.99000549316406 C173.2050018310547,-191.99000549316406 -110.9229965209961,-191.8699951171875 -110.9229965209961,-191.8699951171875 C-110.9229965209961,-191.8699951171875 -145.48500061035156,-132.00999450683594 -145.48500061035156,-132.00999450683594 C-145.48500061035156,-132.00999450683594 -122.10600280761719,0.06199999898672104 -122.10600280761719,0.06199999898672104 C-122.10600280761719,0.06199999898672104 187.06500244140625,-60.0099983215332 187.06500244140625,-60.0099983215332z"></path></g></g><g transform="matrix(-1.862736463546753,-3.2263541221618652,3.2263541221618652,-1.862736463546753,10123.0361328125,14661.4892578125)" opacity="1" style="display: block;"><g opacity="1" transform="matrix(1,0,0,1,4258.10009765625,-84.09300231933594)"><path fill="rgb(97,92,237)" fill-opacity="1" d=" M41.564998626708984,-191.99000549316406 C41.564998626708984,-191.99000549316406 10.385000228881836,-245.99000549316406 10.385000228881836,-245.99000549316406 C8.244999885559082,-249.6999969482422 4.284999847412109,-251.99000549316406 -0.004999999888241291,-251.99000549316406 C-0.004999999888241291,-251.99000549316406 -69.28500366210938,-251.99000549316406 -69.28500366210938,-251.99000549316406 C-71.42500305175781,-251.99000549316406 -73.48500061035156,-251.4199981689453 -75.2750015258789,-250.3800048828125 C-77.07499694824219,-249.33999633789062 -78.59500122070312,-247.83999633789062 -79.67500305175781,-245.99000549316406 C-79.67500305175781,-245.99000549316406 -111.18199920654297,-191.4219970703125 -111.18199920654297,-191.4219970703125 C-111.18199920654297,-191.4219970703125 -145.48500061035156,-132.00999450683594 -145.48500061035156,-132.00999450683594 C-145.48500061035156,-132.00999450683594 41.564998626708984,-191.99000549316406 41.564998626708984,-191.99000549316406z"></path></g></g><g transform="matrix(31.5696964263916,-0.13830067217350006,0.13830067217350006,31.5696964263916,1920,1080)" opacity="1" style="display: block;"><g opacity="1" transform="matrix(1,0,0,1,0,0)"><path fill="rgb(255,255,255)" fill-opacity="1" d=" M-16.312999725341797,-14.13599967956543 C-16.312999725341797,-14.13599967956543 -8.152999877929688,-28.257999420166016 -8.152999877929688,-28.257999420166016 C-8.152999877929688,-28.257999420166016 -4.079999923706055,-21.20400047302246 -4.079999923706055,-21.20400047302246 C-4.079999923706055,-21.20400047302246 -8.163000106811523,-14.133000373840332 -8.163000106811523,-14.133000373840332 C-8.163000106811523,-14.133000373840332 24.5,-14.125 24.5,-14.125 C24.5,-14.125 20.398000717163086,-7.059000015258789 20.398000717163086,-7.059000015258789 C20.398000717163086,-7.059000015258789 -12.229999542236328,-7.065000057220459 -12.229999542236328,-7.065000057220459 C-12.229999542236328,-7.065000057220459 -16.312999725341797,-14.13599967956543 -16.312999725341797,-14.13599967956543z" data-spm-anchor-id="5176.28326591.0.i3.40f76ee1sOSqc0"></path></g></g><g transform="matrix(-15.66507625579834,27.40930938720703,-27.40930938720703,-15.66507625579834,1920,1080)" opacity="1" style="display: block;"><g opacity="1" transform="matrix(1,0,0,1,0,0)"><path fill="rgb(255,255,255)" fill-opacity="1" d=" M-16.312999725341797,-14.13599967956543 C-16.312999725341797,-14.13599967956543 -8.152999877929688,-28.257999420166016 -8.152999877929688,-28.257999420166016 C-8.152999877929688,-28.257999420166016 -4.079999923706055,-21.20400047302246 -4.079999923706055,-21.20400047302246 C-4.079999923706055,-21.20400047302246 -8.163000106811523,-14.133000373840332 -8.163000106811523,-14.133000373840332 C-8.163000106811523,-14.133000373840332 24.5,-14.125 24.5,-14.125 C24.5,-14.125 20.398000717163086,-7.059000015258789 20.398000717163086,-7.059000015258789 C20.398000717163086,-7.059000015258789 -12.229999542236328,-7.065000057220459 -12.229999542236328,-7.065000057220459 C-12.229999542236328,-7.065000057220459 -16.312999725341797,-14.13599967956543 -16.312999725341797,-14.13599967956543z"></path></g></g><g transform="matrix(-15.904620170593262,-27.27100944519043,27.27100944519043,-15.904620170593262,1920,1080)" opacity="1" style="display: block;"><g opacity="1" transform="matrix(1,0,0,1,0,0)"><path fill="rgb(255,255,255)" fill-opacity="1" d=" M-16.312999725341797,-14.13599967956543 C-16.312999725341797,-14.13599967956543 -8.152999877929688,-28.257999420166016 -8.152999877929688,-28.257999420166016 C-8.152999877929688,-28.257999420166016 -4.079999923706055,-21.20400047302246 -4.079999923706055,-21.20400047302246 C-4.079999923706055,-21.20400047302246 -8.163000106811523,-14.133000373840332 -8.163000106811523,-14.133000373840332 C-8.163000106811523,-14.133000373840332 24.5,-14.125 24.5,-14.125 C24.5,-14.125 20.398000717163086,-7.059000015258789 20.398000717163086,-7.059000015258789 C20.398000717163086,-7.059000015258789 -12.229999542236328,-7.065000057220459 -12.229999542236328,-7.065000057220459 C-12.229999542236328,-7.065000057220459 -16.312999725341797,-14.13599967956543 -16.312999725341797,-14.13599967956543z"></path></g></g><g transform="matrix(31.5696964263916,-0.13830067217350006,0.13830067217350006,31.5696964263916,1920,1080)" opacity="1" style="display: block;"><g opacity="1" transform="matrix(1,0,0,1,0,0)"><path fill="rgb(96,91,236)" fill-opacity="1" d=" M-12.229999542236328,-7.065000057220459 C-12.229999542236328,-7.065000057220459 -0.004000000189989805,14.12399959564209 -0.004000000189989805,14.12399959564209 C-0.004000000189989805,14.12399959564209 12.232999801635742,-7.059000015258789 12.232999801635742,-7.059000015258789 C12.232999801635742,-7.059000015258789 -12.229999542236328,-7.065000057220459 -12.229999542236328,-7.065000057220459z"></path></g></g><g transform="matrix(31.5696964263916,-0.13830067217350006,0.13830067217350006,31.5696964263916,1920,1080)" opacity="1" style="display: block;"><g opacity="1" transform="matrix(1,0,0,1,0,0)"><path fill="rgb(96,91,236)" fill-opacity="1" d=" M-12.229999542236328,-7.065000057220459 C-12.229999542236328,-7.065000057220459 20.398000717163086,-7.059000015258789 20.398000717163086,-7.059000015258789 C20.398000717163086,-7.059000015258789 21.21299934387207,-5.645999908447266 21.21299934387207,-5.645999908447266 C21.21299934387207,-5.645999908447266 -11.413999557495117,-5.6529998779296875 -11.413999557495117,-5.6529998779296875 C-11.413999557495117,-5.6529998779296875 -12.229999542236328,-7.065000057220459 -12.229999542236328,-7.065000057220459z"></path></g></g><g transform="matrix(-15.66507625579834,27.40930938720703,-27.40930938720703,-15.66507625579834,1920,1080)" opacity="1" style="display: block;"><g opacity="1" transform="matrix(1,0,0,1,0,0)"><path fill="rgb(96,91,236)" fill-opacity="1" d=" M-12.229999542236328,-7.065000057220459 C-12.229999542236328,-7.065000057220459 20.398000717163086,-7.059000015258789 20.398000717163086,-7.059000015258789 C20.398000717163086,-7.059000015258789 21.21299934387207,-5.645999908447266 21.21299934387207,-5.645999908447266 C21.21299934387207,-5.645999908447266 -11.413999557495117,-5.6529998779296875 -11.413999557495117,-5.6529998779296875 C-11.413999557495117,-5.6529998779296875 -12.229999542236328,-7.065000057220459 -12.229999542236328,-7.065000057220459z"></path></g></g><g transform="matrix(-15.904620170593262,-27.27100944519043,27.27100944519043,-15.904620170593262,1920,1080)" opacity="1" style="display: block;"><g opacity="1" transform="matrix(1,0,0,1,0,0)"><path fill="rgb(96,91,236)" fill-opacity="1" d=" M-12.229999542236328,-7.065000057220459 C-12.229999542236328,-7.065000057220459 20.398000717163086,-7.059000015258789 20.398000717163086,-7.059000015258789 C20.398000717163086,-7.059000015258789 21.21299934387207,-5.645999908447266 21.21299934387207,-5.645999908447266 C21.21299934387207,-5.645999908447266 -11.413999557495117,-5.6529998779296875 -11.413999557495117,-5.6529998779296875 C-11.413999557495117,-5.6529998779296875 -12.229999542236328,-7.065000057220459 -12.229999542236328,-7.065000057220459z"></path></g></g></g><g clip-path="url(#__lottie_element_4)" style="display: none;"><g style="display: none;"><g><path></path></g></g><g style="display: none;"><g><path></path></g></g><g style="display: none;"><g><path></path></g></g><g style="display: none;"><g><path></path></g></g><g style="display: none;"><g><path></path></g></g><g style="display: none;"><g><path></path></g></g><g style="display: none;"><g><path></path></g></g><g style="display: none;"><g><path></path></g></g><g style="display: none;"><g><path></path></g></g><g style="display: none;"><g><path></path></g></g><g style="display: none;"><g><path></path></g></g><g style="display: none;"><g><path></path></g></g><g style="display: none;"><g><path></path></g></g></g></g></svg>